<svg xmlns="http://www.w3.org/2000/svg" aria-hidden="true" style="position:absolute;width:0;height:0;overflow:hidden"><defs><symbol id="icon-outline-menu" viewBox="0 0 32 32"><path d="M4 24h24v-2.667H4V24zm0-6.667h24v-2.667H4v2.667zM4 8v2.667h24V8H4z"/></symbol>
<symbol id="icon-close-black" viewBox="0 0 32 32"><path d="M32 3.223 28.777 0 16 12.777 3.223 0 0 3.223 12.777 16 0 28.777 3.223 32 16 19.223 28.777 32 32 28.777 19.223 16 32 3.223z"/></symbol>
<symbol id="icon-point-right" viewBox="0 0 32 32"><path d="M13 30h5c1.654 0 3-1.346 3-3a2.97 2.97 0 0 0-.387-1.472A3.001 3.001 0 0 0 22 23c0-.768-.29-1.469-.766-2a2.987 2.987 0 0 0 .595-3H29c1.654 0 3-1.346 3-3s-1.346-3-3-3H16.666l2.932-5.501A3.004 3.004 0 0 0 16.999 2c-.824 0-1.592.327-2.163.922l-.022.023-6.815 7.474V9a1 1 0 0 0-1-1h-6a1 1 0 0 0-1 1v20a1 1 0 0 0 1 1h6a1 1 0 0 0 1-1v-1.382l4.553 2.276c.139.069.292.106.447.106zm-8-2a1 1 0 1 1 0-2 1 1 0 0 1 0 2zm8.236 0L8 25.382V13.387l8.287-9.088a1.002 1.002 0 0 1 1.591 1.18c-.01.017-.02.033-.029.051l-3.732 7a1 1 0 0 0 .882 1.47h14c.551 0 1 .449 1 1s-.449 1-1 1h-10a1 1 0 0 0 0 2c.551 0 1 .449 1 1s-.449 1-1 1a1 1 0 0 0 0 2c.551 0 1 .449 1 1s-.449 1-1 1h-1a1 1 0 0 0 0 2c.551 0 1 .449 1 1s-.449 1-1 1h-4.764z"/></symbol>
<symbol id="icon-arrow-right2" viewBox="0 0 32 32"><path d="m19.414 27.414 10-10a2 2 0 0 0 0-2.828l-10-10a2 2 0 1 0-2.828 2.828L23.172 14H4a2 2 0 1 0 0 4h19.172l-6.586 6.586c-.39.39-.586.902-.586 1.414s.195 1.024.586 1.414a2 2 0 0 0 2.828 0z"/></symbol>
<symbol id="FB" viewBox="0 0 32 32"><path stroke-linejoin="miter" stroke-linecap="butt" stroke-miterlimit="10" stroke-width="0.9014" d="M22.126 31.274h7.457c0.525 0 1.028-0.209 1.399-0.58s0.58-0.875 0.58-1.399v-26.715c0-0.525-0.209-1.028-0.58-1.399s-0.875-0.58-1.399-0.58h-26.715c-0.525 0-1.028 0.209-1.399 0.58s-0.58 0.875-0.58 1.399v26.715c0 0.525 0.208 1.028 0.58 1.399s0.875 0.58 1.399 0.58h14.402"></path><path stroke-linejoin="round" stroke-linecap="round" stroke-miterlimit="10" stroke-width="0.9014" d="M22.126 31.274v-12.142h4.371l0.486-4.857h-4.857v-2.914c0-1.943 1.457-1.943 1.943-1.943h2.914v-4.37c-1.963-0.199-9.714-1.942-9.714 6.314v2.914h-3.885v4.857h3.885v12.141"></path></symbol>
<symbol id="icon-telegram" viewBox="0 0 32 32"><path d="M16 0C7.162 0 0 7.162 0 16s7.162 16 16 16 16-7.163 16-16S24.837 0 16 0zm7.863 10.969-2.625 12.369c-.181.881-.712 1.087-1.45.681l-4-2.956-1.919 1.869c-.225.219-.4.4-.8.4-.519 0-.431-.194-.606-.688L11.1 18.169l-3.956-1.231c-.856-.262-.862-.85.194-1.269l15.412-5.95c.7-.319 1.381.169 1.113 1.25z"/></symbol>
<symbol id="icon-github" viewBox="0 0 32 32"><path d="M16 .395c-8.836 0-16 7.163-16 16 0 7.069 4.585 13.067 10.942 15.182.8.148 1.094-.347 1.094-.77 0-.381-.015-1.642-.022-2.979-4.452.968-5.391-1.888-5.391-1.888-.728-1.849-1.776-2.341-1.776-2.341-1.452-.993.11-.973.11-.973 1.606.113 2.452 1.649 2.452 1.649 1.427 2.446 3.743 1.739 4.656 1.33.143-1.034.558-1.74 1.016-2.14-3.554-.404-7.29-1.777-7.29-7.907 0-1.747.625-3.174 1.649-4.295-.166-.403-.714-2.03.155-4.234 0 0 1.344-.43 4.401 1.64a15.353 15.353 0 0 1 4.005-.539c1.359.006 2.729.184 4.008.539 3.054-2.07 4.395-1.64 4.395-1.64.871 2.204.323 3.831.157 4.234 1.026 1.12 1.647 2.548 1.647 4.295 0 6.145-3.743 7.498-7.306 7.895.574.497 1.085 1.47 1.085 2.963 0 2.141-.019 3.864-.019 4.391 0 .426.288.925 1.099.768C27.421 29.457 32 23.462 32 16.395c0-8.837-7.164-16-16-16z"/></symbol></defs>
<symbol id="icon-Heart" viewBox="0 0 32 32"><path fill="#fc6dae" style="fill: var(--color1, #fc6dae)" stroke-linejoin="round" stroke-linecap="round" stroke-miterlimit="4" stroke-width="0.9796" stroke="#000" d="M16.827 27.747c-0.453 0.16-1.2 0.16-1.653 0-3.867-1.32-12.507-6.827-12.507-16.16 0-4.12 3.32-7.453 7.413-7.453 2.427 0 4.573 1.173 5.92 2.987 1.347-1.813 3.507-2.987 5.92-2.987 4.093 0 7.413 3.333 7.413 7.453 0 9.333-8.64 14.84-12.507 16.16z"></path></symbol>
<symbol id="burger" viewBox="0 0 32 32"><path d="M4 24h24v-2.667h-24v2.667zM4 17.333h24v-2.667h-24v2.667zM4 8v2.667h24v-2.667h-24z"></path>
</symbol>
</defs></svg>